<mxfile host="app.diagrams.net" modified="2020-07-20T12:30:06.664Z" agent="5.0 (Macintosh; Intel Mac OS X 10_15_5) AppleWebKit/537.36 (KHTML, like Gecko) Chrome/83.0.4103.116 Safari/537.36" etag="OiJjBR9-yMrKW1_7D5Y4" version="13.4.6" type="github">
  <diagram id="9GQ7myi5UVyHt1rq7ifi" name="Page-1">
    <mxGraphModel dx="2066" dy="1105" grid="1" gridSize="10" guides="1" tooltips="1" connect="1" arrows="1" fold="1" page="1" pageScale="1" pageWidth="827" pageHeight="1169" math="0" shadow="0">
      <root>
        <mxCell id="0" />
        <mxCell id="1" parent="0" />
        <mxCell id="nqWWmVAIkHWb2ogP711g-13" style="edgeStyle=orthogonalEdgeStyle;rounded=0;orthogonalLoop=1;jettySize=auto;html=1;entryX=1;entryY=0.5;entryDx=0;entryDy=0;curved=1;exitX=1;exitY=0.5;exitDx=0;exitDy=0;strokeWidth=2;fillColor=#f8cecc;strokeColor=#b85450;" edge="1" parent="1" source="nqWWmVAIkHWb2ogP711g-1" target="nqWWmVAIkHWb2ogP711g-2">
          <mxGeometry relative="1" as="geometry" />
        </mxCell>
        <mxCell id="nqWWmVAIkHWb2ogP711g-1" value="CPU working" style="rounded=0;whiteSpace=wrap;html=1;fillColor=#dae8fc;strokeColor=#6c8ebf;" vertex="1" parent="1">
          <mxGeometry x="360" y="230" width="120" height="60" as="geometry" />
        </mxCell>
        <mxCell id="nqWWmVAIkHWb2ogP711g-14" style="edgeStyle=orthogonalEdgeStyle;curved=1;rounded=0;orthogonalLoop=1;jettySize=auto;html=1;entryX=0;entryY=0.5;entryDx=0;entryDy=0;strokeWidth=2;exitX=0;exitY=0.5;exitDx=0;exitDy=0;fillColor=#f8cecc;strokeColor=#b85450;" edge="1" parent="1" source="nqWWmVAIkHWb2ogP711g-2" target="nqWWmVAIkHWb2ogP711g-1">
          <mxGeometry relative="1" as="geometry" />
        </mxCell>
        <mxCell id="nqWWmVAIkHWb2ogP711g-2" value="CPU idle" style="rounded=0;whiteSpace=wrap;html=1;fillColor=#e1d5e7;strokeColor=#9673a6;" vertex="1" parent="1">
          <mxGeometry x="360" y="350" width="120" height="60" as="geometry" />
        </mxCell>
        <mxCell id="nqWWmVAIkHWb2ogP711g-4" value="" style="shape=table;html=1;whiteSpace=wrap;startSize=0;container=1;collapsible=0;childLayout=tableLayout;" vertex="1" parent="1">
          <mxGeometry x="260" y="500" width="420" height="40" as="geometry" />
        </mxCell>
        <mxCell id="nqWWmVAIkHWb2ogP711g-5" value="" style="shape=partialRectangle;html=1;whiteSpace=wrap;collapsible=0;dropTarget=0;pointerEvents=0;fillColor=none;top=0;left=0;bottom=0;right=0;points=[[0,0.5],[1,0.5]];portConstraint=eastwest;" vertex="1" parent="nqWWmVAIkHWb2ogP711g-4">
          <mxGeometry width="420" height="40" as="geometry" />
        </mxCell>
        <mxCell id="nqWWmVAIkHWb2ogP711g-6" value="" style="shape=partialRectangle;html=1;whiteSpace=wrap;connectable=0;overflow=hidden;fillColor=#dae8fc;top=0;left=0;bottom=0;right=0;strokeColor=#6c8ebf;" vertex="1" parent="nqWWmVAIkHWb2ogP711g-5">
          <mxGeometry width="60" height="40" as="geometry" />
        </mxCell>
        <mxCell id="nqWWmVAIkHWb2ogP711g-7" value="" style="shape=partialRectangle;html=1;whiteSpace=wrap;connectable=0;overflow=hidden;fillColor=#e1d5e7;top=0;left=0;bottom=0;right=0;strokeColor=#9673a6;" vertex="1" parent="nqWWmVAIkHWb2ogP711g-5">
          <mxGeometry x="60" width="40" height="40" as="geometry" />
        </mxCell>
        <mxCell id="nqWWmVAIkHWb2ogP711g-8" value="" style="shape=partialRectangle;html=1;whiteSpace=wrap;connectable=0;overflow=hidden;fillColor=#dae8fc;top=0;left=0;bottom=0;right=0;strokeColor=#6c8ebf;" vertex="1" parent="nqWWmVAIkHWb2ogP711g-5">
          <mxGeometry x="100" width="50" height="40" as="geometry" />
        </mxCell>
        <mxCell id="nqWWmVAIkHWb2ogP711g-9" value="" style="shape=partialRectangle;html=1;whiteSpace=wrap;connectable=0;overflow=hidden;fillColor=#e1d5e7;top=0;left=0;bottom=0;right=0;strokeColor=#9673a6;" vertex="1" parent="nqWWmVAIkHWb2ogP711g-5">
          <mxGeometry x="150" width="20" height="40" as="geometry" />
        </mxCell>
        <mxCell id="nqWWmVAIkHWb2ogP711g-10" value="" style="shape=partialRectangle;html=1;whiteSpace=wrap;connectable=0;overflow=hidden;fillColor=#dae8fc;top=0;left=0;bottom=0;right=0;strokeColor=#6c8ebf;" vertex="1" parent="nqWWmVAIkHWb2ogP711g-5">
          <mxGeometry x="170" width="130" height="40" as="geometry" />
        </mxCell>
        <mxCell id="nqWWmVAIkHWb2ogP711g-11" value="" style="shape=partialRectangle;html=1;whiteSpace=wrap;connectable=0;overflow=hidden;fillColor=#e1d5e7;top=0;left=0;bottom=0;right=0;strokeColor=#9673a6;" vertex="1" parent="nqWWmVAIkHWb2ogP711g-5">
          <mxGeometry x="300" width="80" height="40" as="geometry" />
        </mxCell>
        <mxCell id="nqWWmVAIkHWb2ogP711g-12" value="" style="shape=partialRectangle;html=1;whiteSpace=wrap;connectable=0;overflow=hidden;fillColor=#dae8fc;top=0;left=0;bottom=0;right=0;strokeColor=#6c8ebf;" vertex="1" parent="nqWWmVAIkHWb2ogP711g-5">
          <mxGeometry x="380" width="40" height="40" as="geometry" />
        </mxCell>
        <mxCell id="nqWWmVAIkHWb2ogP711g-15" value="" style="endArrow=classic;html=1;strokeWidth=2;entryX=0;entryY=0.5;entryDx=0;entryDy=0;" edge="1" parent="1" target="nqWWmVAIkHWb2ogP711g-5">
          <mxGeometry width="50" height="50" relative="1" as="geometry">
            <mxPoint x="200" y="450" as="sourcePoint" />
            <mxPoint x="290" y="450" as="targetPoint" />
          </mxGeometry>
        </mxCell>
        <mxCell id="2" value="CPU Burst" style="text;html=1;align=center;verticalAlign=middle;resizable=0;points=[];autosize=1;" vertex="1" parent="1">
          <mxGeometry x="145" y="410" width="70" height="20" as="geometry" />
        </mxCell>
        <mxCell id="nqWWmVAIkHWb2ogP711g-16" value="" style="endArrow=classic;html=1;strokeWidth=2;entryX=0.19;entryY=0;entryDx=0;entryDy=0;entryPerimeter=0;" edge="1" parent="1" target="nqWWmVAIkHWb2ogP711g-5">
          <mxGeometry width="50" height="50" relative="1" as="geometry">
            <mxPoint x="310" y="450" as="sourcePoint" />
            <mxPoint x="360" y="440" as="targetPoint" />
          </mxGeometry>
        </mxCell>
        <mxCell id="nqWWmVAIkHWb2ogP711g-17" value="CPU idle due to I/O operation" style="text;html=1;align=center;verticalAlign=middle;resizable=0;points=[];autosize=1;" vertex="1" parent="1">
          <mxGeometry x="230" y="420" width="170" height="20" as="geometry" />
        </mxCell>
      </root>
    </mxGraphModel>
  </diagram>
</mxfile>
